<svg width="11" height="21" viewBox="0 0 11 21" fill="none" xmlns="http://www.w3.org/2000/svg">
<path fill-rule="evenodd" clip-rule="evenodd" d="M10.7406 0.571868C10.8133 0.644439 10.871 0.730651 10.9104 0.825565C10.9498 0.92048 10.9701 1.02223 10.9701 1.12499C10.9701 1.22775 10.9498 1.32951 10.9104 1.42442C10.871 1.51933 10.8133 1.60555 10.7406 1.67812L1.91712 10.5L10.7406 19.3219C10.8873 19.4686 10.9697 19.6675 10.9697 19.875C10.9697 20.0825 10.8873 20.2814 10.7406 20.4281C10.5939 20.5748 10.3949 20.6572 10.1874 20.6572C9.97997 20.6572 9.781 20.5748 9.63431 20.4281L0.259306 11.0531C0.186551 10.9805 0.128828 10.8943 0.0894427 10.7994C0.0500576 10.7045 0.0297852 10.6028 0.0297852 10.5C0.0297852 10.3972 0.0500576 10.2955 0.0894427 10.2006C0.128828 10.1057 0.186551 10.0194 0.259306 9.94687L9.63431 0.571868C9.70688 0.499113 9.79309 0.44139 9.88801 0.402004C9.98292 0.362619 10.0847 0.342346 10.1874 0.342346C10.2902 0.342346 10.3919 0.362619 10.4869 0.402004C10.5818 0.44139 10.668 0.499113 10.7406 0.571868Z" fill="#002743"/>
</svg>
