<svg width="14" height="14" viewBox="0 0 14 14" fill="none" xmlns="http://www.w3.org/2000/svg">
<path d="M13.6644 0.651457C13.8664 0.8596 13.9775 1.13948 13.9732 1.42953C13.9689 1.71958 13.8495 1.99604 13.6414 2.19808L8.93254 6.76899L13.5034 11.4778C13.7055 11.686 13.8166 11.9659 13.8123 12.2559C13.808 12.546 13.6886 12.8224 13.4805 13.0245C13.2723 13.2265 12.9924 13.3376 12.7024 13.3333C12.4123 13.329 12.1359 13.2096 11.9338 13.0015L7.36293 8.29263L2.65408 12.8635C2.44594 13.0656 2.16606 13.1767 1.87601 13.1724C1.58596 13.168 1.3095 13.0487 1.10746 12.8405C0.905412 12.6324 0.794323 12.3525 0.798635 12.0625C0.802946 11.7724 0.922303 11.496 1.13045 11.2939L5.83929 6.72301L1.26838 2.01417C1.06633 1.80603 0.955246 1.52615 0.959557 1.2361C0.963868 0.946051 1.08322 0.669593 1.29137 0.467547C1.49951 0.2655 1.77939 0.154413 2.06944 0.158725C2.35949 0.163036 2.63595 0.282392 2.83799 0.490535L7.4089 5.19938L12.1177 0.628468C12.3259 0.426421 12.6058 0.315335 12.8958 0.319646C13.1859 0.323957 13.4623 0.443314 13.6644 0.651457Z" fill="#002743"/>
</svg>
