<svg width="871" height="947" viewBox="0 0 871 947" fill="none" xmlns="http://www.w3.org/2000/svg">
<g opacity="0.2">
<circle cx="468.952" cy="473.344" r="184.518" stroke="#00ACB0" stroke-width="141.937"/>
<path d="M479.991 0.220947C484.214 0.220947 488.424 0.274466 492.62 0.380851C546.075 24.3274 561.671 105.741 492.855 145.548C488.587 145.391 484.299 145.312 479.991 145.312C303.991 145.312 159.605 277.488 145.247 445.734C123.784 431.309 97.8639 422.878 69.951 422.878C44.3171 422.878 20.3636 429.988 0 442.322C16.243 195.484 224.934 0.220947 479.991 0.220947Z" fill="#00ACB0"/>
<path d="M815.909 473.344C815.909 331.649 723.909 210.937 595.059 165.063C625.445 120.693 631.064 66.4579 615.442 19.2385C815.149 76.776 961 258.307 961 473.344C961 734.643 745.645 946.468 479.991 946.468C474.018 946.468 468.07 946.36 462.149 946.148C444.518 934.975 432.984 923.401 425.722 912.797C413.89 895.521 411.614 878.397 414.838 862.856C420.925 833.506 447.005 807.842 477.716 801.369C478.474 801.374 479.232 801.376 479.991 801.376C665.513 801.376 815.909 654.511 815.909 473.344Z" fill="#00ACB0"/>
</g>
</svg>
