<svg width="138" height="70" viewBox="0 0 138 70" fill="none" xmlns="http://www.w3.org/2000/svg">
<g clip-path="url(#clip0_17_310)">
<path d="M43.1429 26.1529C43.2208 25.8662 43.5153 25.6962 43.8025 25.7715C44.0897 25.8492 44.2601 26.1432 44.1847 26.4299C44.1068 26.7165 43.8123 26.8866 43.5226 26.8113C43.2354 26.7336 43.065 26.4396 43.1404 26.1529" fill="#E53750"/>
<path d="M58.4368 19.5545C59.0819 19.0589 60.0069 19.1804 60.5034 19.8242C60.9976 20.468 60.8759 21.3911 60.2308 21.8867C59.5858 22.3823 58.6608 22.2609 58.1642 21.6146C57.6701 20.9708 57.7894 20.0477 58.4368 19.5545Z" fill="#26BCEC"/>
<path d="M45.0663 23.7526C45.2196 23.3833 45.6432 23.206 46.0156 23.3615C46.3856 23.5145 46.5633 23.9372 46.4075 24.309C46.2542 24.6782 45.8282 24.8531 45.4582 24.7001C45.0882 24.547 44.9105 24.1243 45.0663 23.7526Z" fill="#FECC38"/>
<path d="M50.8543 20.3611C51.2243 19.8801 51.9132 19.7902 52.3976 20.1595C52.8796 20.5263 52.9696 21.2163 52.5996 21.6973C52.2296 22.1784 51.5408 22.2707 51.0588 21.9014C50.5769 21.5321 50.4844 20.8422 50.8543 20.3611Z" fill="#00ACB0"/>
<path d="M47.6828 21.7872C47.9359 21.3524 48.4933 21.2017 48.929 21.4544C49.3672 21.7071 49.5157 22.2634 49.265 22.6983C49.0142 23.1331 48.4544 23.2838 48.0187 23.0311C47.5805 22.7809 47.432 22.2221 47.6852 21.7872M54.4814 19.5886C54.9852 19.0857 55.7983 19.0857 56.3021 19.5886C56.8036 20.0891 56.8036 20.9029 56.3021 21.4034C55.8007 21.9063 54.9852 21.9063 54.4838 21.4034C53.9799 20.9029 53.9799 20.0891 54.4838 19.5886M40.8306 25.9902C40.8306 25.6938 41.0716 25.4533 41.371 25.4533C41.6679 25.4533 41.9089 25.6938 41.9089 25.9926C41.9089 26.2914 41.6679 26.5319 41.3685 26.5295C41.0716 26.5295 40.8282 26.289 40.8306 25.9902Z" fill="#233D8D"/>
<path d="M58.0988 15.3418C58.7463 14.6932 59.7978 14.6932 60.4477 15.3418C61.0952 15.9881 61.0952 17.0376 60.4453 17.6862C59.8027 18.3325 58.7463 18.3325 58.1012 17.6862C57.4513 17.0376 57.4513 15.9905 58.1012 15.3443" fill="#00ACB0"/>
<path d="M53.8876 15.6675C54.3817 15.0237 55.3067 14.8998 55.9518 15.3954C56.5968 15.8886 56.7185 16.8117 56.222 17.458C55.7278 18.1018 54.8028 18.2257 54.1553 17.7301C53.5103 17.2345 53.3886 16.3137 53.8852 15.6699" fill="#FECC38"/>
<path d="M42.0597 23.1743C42.1109 22.7783 42.476 22.4965 42.8752 22.55C43.2744 22.601 43.5543 22.9654 43.5008 23.3614C43.4496 23.7574 43.0845 24.0392 42.6853 23.9858C42.2885 23.9347 42.0086 23.5703 42.0597 23.1719" fill="#00ACB0"/>
<path d="M46.7726 18.4054C47.0063 17.8466 47.6489 17.5794 48.2088 17.8102C48.771 18.041 49.0364 18.6848 48.8027 19.2435C48.5714 19.8047 47.9264 20.0695 47.3665 19.8387C46.8067 19.6055 46.5389 18.9641 46.7702 18.4054" fill="#E53750"/>
<path d="M44.0776 20.5991C44.209 20.1132 44.7105 19.8241 45.1949 19.9553C45.6841 20.0841 45.9714 20.5846 45.8399 21.0704C45.7109 21.5563 45.207 21.8454 44.7226 21.7142C44.2358 21.5855 43.9461 21.085 44.0776 20.5991ZM50.0729 16.7218C50.4283 16.1071 51.2145 15.8957 51.8304 16.2504C52.4462 16.6051 52.6556 17.3898 52.3002 18.0045C51.9448 18.6191 51.1586 18.8305 50.5427 18.4734C49.9269 18.1187 49.7151 17.334 50.0705 16.7218M38.5423 26.4322C38.4644 26.1455 38.6348 25.8491 38.9245 25.7738C39.2117 25.6961 39.5087 25.8686 39.5841 26.1553C39.662 26.4419 39.4892 26.7383 39.202 26.8136C38.9147 26.8914 38.6178 26.7213 38.5423 26.4322Z" fill="#26BCEC"/>
<path d="M52.4682 11.6832C52.9259 10.8912 53.9409 10.6191 54.7369 11.0758C55.5304 11.5326 55.8006 12.5456 55.343 13.3401C54.8878 14.1296 53.8703 14.4041 53.0768 13.945C52.2808 13.4882 52.0082 12.4752 52.4682 11.6832Z" fill="#E53750"/>
<path d="M48.486 13.0849C48.7951 12.3342 49.6568 11.9771 50.409 12.2881C51.1587 12.599 51.5165 13.4591 51.2049 14.2098C50.8958 14.9605 50.0317 15.3176 49.2795 15.0042C48.5273 14.6932 48.1695 13.8332 48.4835 13.0849" fill="#00ACB0"/>
<path d="M39.01 23.3931C38.9564 22.9971 39.2364 22.6326 39.6356 22.5816C40.0348 22.5282 40.3975 22.8076 40.451 23.206C40.5021 23.602 40.2222 23.9664 39.8254 24.0199C39.4262 24.0733 39.0635 23.7939 39.01 23.3955" fill="#E53750"/>
<path d="M42.3227 17.5696C42.403 16.9696 42.9532 16.5468 43.5568 16.6246C44.1605 16.7023 44.5816 17.2562 44.5037 17.8563C44.4258 18.4564 43.8733 18.8815 43.2696 18.8013C42.6684 18.7236 42.2424 18.1721 42.3227 17.5696Z" fill="#233D8D"/>
<path d="M40.2903 20.3855C40.2903 19.8826 40.6993 19.4744 41.2031 19.4744C41.7094 19.4744 42.1159 19.8826 42.1159 20.3855C42.1159 20.8883 41.707 21.2965 41.2031 21.2965C40.6993 21.2965 40.2903 20.8883 40.2903 20.3855ZM45.0759 15.0917C45.2609 14.4066 45.9643 14.0009 46.6532 14.1831C47.3397 14.3653 47.7462 15.0698 47.5612 15.7549C47.3786 16.44 46.6727 16.8482 45.9863 16.6636C45.2998 16.4789 44.8909 15.7768 45.0759 15.0917ZM36.4589 27.4478C36.3105 27.1903 36.3981 26.8623 36.6561 26.7117C36.9141 26.5635 37.2427 26.651 37.3937 26.9085C37.5421 27.166 37.4545 27.494 37.1965 27.6446C36.9385 27.7928 36.6099 27.7053 36.4589 27.4478Z" fill="#FECC38"/>
<path d="M46.0837 9.606C46.3198 8.72169 47.2302 8.19693 48.1186 8.43258C49.0022 8.67067 49.528 9.57685 49.2919 10.4636C49.0582 11.3455 48.1454 11.8702 47.2618 11.6346C46.3758 11.3965 45.8476 10.4903 46.0861 9.606" fill="#233D8D"/>
<path d="M42.598 11.9868C42.7026 11.1826 43.4426 10.6142 44.2508 10.721C45.0565 10.8279 45.6236 11.5665 45.519 12.3706C45.4143 13.1748 44.6743 13.7433 43.8662 13.6364C43.0605 13.5295 42.4909 12.7934 42.6004 11.9868" fill="#E53750"/>
<path d="M36.118 24.394C35.9647 24.0247 36.1399 23.5996 36.5099 23.4465C36.8799 23.2935 37.3059 23.4684 37.4592 23.8377C37.6126 24.2069 37.4373 24.6321 37.0649 24.7851C36.6949 24.9382 36.2714 24.7633 36.118 24.394Z" fill="#233D8D"/>
<path d="M37.8076 17.9098C37.7297 17.3097 38.1532 16.7582 38.7545 16.678C39.3557 16.5979 39.9083 17.023 39.9886 17.6231C40.0689 18.2232 39.6454 18.7746 39.0417 18.8548C38.4405 18.935 37.8855 18.5123 37.8076 17.9098Z" fill="#26BCEC"/>
<path d="M36.5733 21.1555C36.4443 20.6696 36.7315 20.1691 37.2184 20.0404C37.7052 19.9092 38.2042 20.1983 38.3381 20.6842C38.4695 21.1701 38.1799 21.6705 37.693 21.7993C37.2062 21.9305 36.7048 21.6414 36.5758 21.1555M39.8254 14.8049C39.8254 14.0956 40.4023 13.5198 41.113 13.5198C41.8238 13.5198 42.3983 14.0931 42.3983 14.8025C42.3983 15.5119 41.8238 16.0877 41.113 16.0853C40.4023 16.0853 39.8254 15.5119 39.8254 14.8025M34.7063 28.9637C34.497 28.7523 34.497 28.4122 34.7063 28.2033C34.9157 27.9919 35.2589 27.9919 35.4682 28.2033C35.68 28.4146 35.68 28.7548 35.4682 28.9637C35.2564 29.1751 34.9157 29.1751 34.7063 28.9637Z" fill="#00ACB0"/>
<path d="M39.375 9.24646C39.375 8.33057 40.1174 7.58716 41.0351 7.58716C41.9504 7.58716 42.6928 8.32814 42.6952 9.24646C42.6976 10.1575 41.9528 10.9033 41.0351 10.9009C40.1174 10.9009 39.3726 10.1624 39.375 9.24646Z" fill="#26BCEC"/>
<path d="M36.6268 12.4484C36.5197 11.6442 37.0868 10.9057 37.895 10.7988C38.7007 10.6919 39.4406 11.2604 39.5478 12.0645C39.6549 12.8687 39.0877 13.6097 38.2795 13.7141C37.4714 13.8186 36.7339 13.255 36.6268 12.4484Z" fill="#233D8D"/>
<path d="M27.6033 4.8321C27.4962 4.02796 28.0634 3.28941 28.8715 3.18252C29.6772 3.07562 30.4172 3.64168 30.5243 4.44825C30.6314 5.25239 30.0643 5.99337 29.2561 6.09784C28.448 6.2023 27.7104 5.63868 27.6033 4.8321Z" fill="#00ACB0"/>
<path d="M33.5841 26.1042C33.3407 25.7884 33.3991 25.3317 33.718 25.0887C34.0369 24.8458 34.4921 24.9041 34.7355 25.2224C34.9789 25.5382 34.9205 25.9949 34.6016 26.2379C34.2827 26.4808 33.8276 26.4225 33.5841 26.1042Z" fill="#26BCEC"/>
<path d="M33.5356 19.4064C33.3044 18.8452 33.5697 18.2038 34.132 17.973C34.6919 17.7398 35.3369 18.007 35.5682 18.5682C35.8018 19.127 35.5365 19.7708 34.9742 20.0016C34.4144 20.2348 33.7693 19.9676 33.5381 19.4088" fill="#FECC38"/>
<path d="M16.3501 8.79456C16.1188 8.23336 16.3842 7.59199 16.9465 7.36119C17.5063 7.12797 18.1514 7.3952 18.3826 7.9564C18.6163 8.51517 18.351 9.15898 17.7887 9.38977C17.2264 9.623 16.5838 9.35576 16.3501 8.79699M19.1007 68.9425C18.8694 68.3813 19.1348 67.74 19.6971 67.5092C20.2593 67.2759 20.902 67.5432 21.1332 68.1044C21.3669 68.6631 21.0991 69.3069 20.5393 69.5377C19.977 69.771 19.3344 69.5037 19.1031 68.945" fill="#233D8D"/>
<path d="M33.1848 22.861C32.9341 22.4261 33.0826 21.8673 33.5183 21.6171C33.9564 21.3644 34.5139 21.5151 34.767 21.9499C35.0202 22.3848 34.8693 22.9436 34.4311 23.1938C33.9954 23.4465 33.4355 23.2958 33.1848 22.861ZM23.9983 1.36775C23.7476 0.932883 23.896 0.374112 24.3318 0.12388C24.7699 -0.128781 25.3273 0.0218441 25.5805 0.456713C25.8336 0.891582 25.6827 1.45035 25.247 1.70058C24.8113 1.95325 24.2514 1.80262 24.0007 1.36775M34.6818 15.8885C34.4968 15.2034 34.9033 14.4989 35.5922 14.3142C36.2786 14.1296 36.9821 14.5377 37.1671 15.2228C37.3521 15.9079 36.9432 16.6125 36.2567 16.7947C35.5703 16.9793 34.8644 16.5736 34.6818 15.8885ZM33.4088 30.8903C33.1507 30.7421 33.0631 30.4117 33.2116 30.1541C33.3601 29.8966 33.6911 29.8092 33.9491 29.9574C34.2072 30.1055 34.2972 30.436 34.1463 30.6935C33.9978 30.951 33.6692 31.0385 33.4088 30.8903Z" fill="#E53750"/>
<path d="M32.8026 10.6337C32.564 9.74936 33.0898 8.84075 33.9759 8.60267C34.8595 8.36701 35.7698 8.88934 36.0084 9.77608C36.2469 10.6555 35.7212 11.5666 34.8351 11.8022C33.9491 12.0403 33.0387 11.518 32.8026 10.6337Z" fill="#FECC38"/>
<path d="M30.9771 14.4357C30.6656 13.685 31.0209 12.825 31.7731 12.514C32.5253 12.2031 33.387 12.5602 33.6985 13.3109C34.0101 14.0591 33.6547 14.9216 32.9026 15.2326C32.1504 15.5435 31.2887 15.1888 30.9796 14.4357" fill="#26BCEC"/>
<path d="M31.5809 28.4122C31.262 28.1693 31.2011 27.715 31.447 27.3967C31.6904 27.0785 32.1456 27.0177 32.4645 27.2631C32.7809 27.5061 32.8418 27.9628 32.5984 28.2786C32.3525 28.5969 31.8998 28.6552 31.5809 28.4122Z" fill="#FECC38"/>
<path d="M29.7967 21.9548C29.4267 21.4738 29.5167 20.7863 29.9987 20.4146C30.4807 20.0453 31.172 20.1376 31.5395 20.6186C31.9095 21.0997 31.8195 21.7896 31.3375 22.1565C30.8555 22.5258 30.1642 22.4359 29.7942 21.9548" fill="#00ACB0"/>
<path d="M30.3539 25.3827C29.9985 25.0256 29.9961 24.4498 30.3539 24.0951C30.7093 23.738 31.2886 23.738 31.644 24.0951C32.0018 24.4498 32.0018 25.028 31.644 25.3827C31.2886 25.7398 30.7093 25.7398 30.3539 25.3827Z" fill="#233D8D"/>
<path d="M10.7616 18.3932C10.4062 18.0361 10.4038 17.4603 10.7616 17.1056C11.117 16.7485 11.6963 16.7485 12.0517 17.1056C12.4095 17.4603 12.4095 18.0385 12.0517 18.3932C11.6963 18.7503 11.117 18.7503 10.7616 18.3932Z" fill="#E53750"/>
<path d="M29.9864 18.2596C29.631 17.6449 29.8404 16.8602 30.4586 16.5055C31.072 16.1508 31.8607 16.3622 32.2161 16.9744C32.5715 17.5866 32.3622 18.3738 31.7463 18.7285C31.1305 19.0832 30.3442 18.8742 29.9888 18.2596M32.6494 33.0791C32.3622 33.0014 32.1918 32.7074 32.2672 32.4208C32.3451 32.1341 32.6397 31.964 32.9269 32.0393C33.2141 32.1171 33.3845 32.4111 33.309 32.7002C33.2312 32.9868 32.9366 33.1569 32.6494 33.0816" fill="#233D8D"/>
<path d="M26.8121 13.6704C26.352 12.8784 26.6246 11.8629 27.4182 11.4062C28.2117 10.9494 29.2268 11.2215 29.6868 12.016C30.1444 12.8031 29.8743 13.821 29.0783 14.2778C28.2823 14.7369 27.2697 14.4648 26.8121 13.6728" fill="#00ACB0"/>
<path d="M26.0385 17.8151C25.5419 17.1713 25.6636 16.2481 26.3087 15.7525C26.9537 15.2593 27.8787 15.3808 28.3753 16.0246C28.8718 16.6684 28.7501 17.5916 28.1026 18.0872C27.4576 18.5804 26.5326 18.4613 26.0385 17.8151Z" fill="#FECC38"/>
<path d="M30.2443 31.16C29.8743 31.0069 29.6966 30.5842 29.8524 30.2125C30.0058 29.8432 30.4293 29.6659 30.8018 29.819C31.1717 29.972 31.3494 30.3947 31.1937 30.7664C31.0403 31.1357 30.6168 31.3106 30.2443 31.1576" fill="#00ACB0"/>
<path d="M26.8464 25.3827C26.3644 25.0135 26.2743 24.3259 26.6443 23.8425C27.0143 23.3614 27.7032 23.2715 28.1851 23.6408C28.6671 24.0077 28.7596 24.6976 28.3896 25.1787C28.0196 25.6597 27.3283 25.752 26.8464 25.3827Z" fill="#E53750"/>
<path d="M28.2727 28.5483C27.837 28.2956 27.6861 27.7393 27.9392 27.3044C28.1924 26.8671 28.7498 26.7189 29.1855 26.9692C29.6212 27.2194 29.7722 27.7782 29.519 28.213C29.2683 28.6503 28.7084 28.7985 28.2727 28.5459M26.0698 21.7629C25.5659 21.26 25.5659 20.4486 26.0698 19.9457C26.5712 19.4452 27.3867 19.4452 27.8881 19.9457C28.3896 20.4461 28.392 21.26 27.8881 21.7604C27.3867 22.2633 26.5712 22.2633 26.0698 21.7604M32.4838 35.3872C32.1868 35.3872 31.9459 35.1466 31.9459 34.8478C31.9459 34.5514 32.1869 34.3109 32.4863 34.3109C32.7857 34.3109 33.0266 34.5514 33.0242 34.8502C33.0242 35.1491 32.7832 35.3896 32.4838 35.3896" fill="#26BCEC"/>
<path d="M20.4201 15.9759C19.7701 15.3297 19.7701 14.2802 20.4201 13.6315C21.0675 12.9853 22.1191 12.9853 22.769 13.6315C23.4165 14.2753 23.4165 15.3273 22.769 15.9711C22.1191 16.6197 21.07 16.6197 20.4225 15.9711" fill="#E53750"/>
<path d="M22.1412 22.3556C21.4962 21.8624 21.3721 20.9393 21.8686 20.2955C22.3628 19.6517 23.2877 19.5302 23.9352 20.0234C24.5803 20.5165 24.7044 21.4397 24.2079 22.086C23.7113 22.7298 22.7887 22.8512 22.1437 22.3556" fill="#00ACB0"/>
<path d="M29.6653 34.1603C29.2685 34.1093 28.9862 33.7449 29.0397 33.3464C29.0908 32.9504 29.456 32.6686 29.8527 32.7221C30.2495 32.7731 30.5294 33.1375 30.4783 33.5359C30.4272 33.9319 30.0621 34.2113 29.6629 34.1603" fill="#E53750"/>
<path d="M30.8847 40.0906C30.5147 40.2436 30.0887 40.0687 29.9354 39.6994C29.782 39.3301 29.9573 38.905 30.3273 38.7519C30.6973 38.5989 31.1233 38.7738 31.2766 39.1431C31.43 39.5123 31.2547 39.9351 30.8847 40.0906Z" fill="#26BCEC"/>
<path d="M24.8846 29.4569C24.3247 29.2237 24.057 28.5823 24.2882 28.0236C24.5195 27.4624 25.1645 27.1975 25.7244 27.4308C26.2842 27.6616 26.552 28.3054 26.3183 28.8641C26.0871 29.4229 25.442 29.6902 24.8822 29.4594" fill="#233D8D"/>
<path d="M27.0849 32.1462C26.5981 32.0151 26.3084 31.517 26.4399 31.0311C26.5689 30.5428 27.0703 30.2561 27.5572 30.3849C28.044 30.5137 28.3337 31.0141 28.2022 31.5C28.0732 31.9859 27.5718 32.275 27.0849 32.1438" fill="#FECC38"/>
<path d="M17.3314 24.1924C16.7156 23.8377 16.5038 23.053 16.8616 22.4383C17.217 21.8237 18.0032 21.6147 18.6191 21.9694C19.2349 22.3241 19.4467 23.1088 19.0889 23.7235C18.7335 24.3381 17.9472 24.5495 17.3338 24.1948" fill="#233D8D"/>
<path d="M32.9273 37.6659C32.6401 37.7437 32.3431 37.5736 32.2677 37.2845C32.1898 36.9979 32.3602 36.7015 32.6498 36.6261C32.9371 36.5484 33.234 36.7209 33.3095 37.0076C33.385 37.2942 33.217 37.5906 32.9273 37.6659ZM3.72225 23.7696C2.92871 23.3128 2.65365 22.2998 3.11371 21.5053C3.57133 20.7133 4.58638 20.4437 5.38235 20.9004C6.17345 21.3547 6.44851 22.3702 5.98845 23.1622C5.53083 23.9566 4.51578 24.2287 3.72225 23.7696Z" fill="#FECC38"/>
<path d="M19.5564 27.7466C18.8043 27.4381 18.4464 26.5781 18.758 25.8249C19.0696 25.0742 19.9313 24.7195 20.6834 25.0305C21.4356 25.339 21.7934 26.2015 21.4794 26.9522C21.1678 27.7029 20.3061 28.06 19.5564 27.7466Z" fill="#E53750"/>
<path d="M29.884 37.2044C29.4873 37.2579 29.1221 36.9785 29.0686 36.5801C29.015 36.1841 29.295 35.8196 29.6942 35.7662C30.0909 35.7127 30.456 35.9921 30.5096 36.3906C30.5632 36.789 30.2832 37.151 29.884 37.2044Z" fill="#233D8D"/>
<path d="M24.0469 33.8979C23.4457 33.8178 23.0222 33.2687 23.1001 32.6662C23.1779 32.0637 23.7329 31.6434 24.3342 31.7212C24.9354 31.7989 25.3614 32.3504 25.2811 32.9505C25.2032 33.5505 24.6506 33.9757 24.0469 33.8955" fill="#26BCEC"/>
<path d="M26.8684 35.9265C26.3646 35.9265 25.9556 35.5184 25.9556 35.0155C25.9556 34.5126 26.3646 34.1044 26.8684 34.1044C27.3723 34.1044 27.7812 34.5126 27.7812 35.0155C27.7812 35.5184 27.3723 35.9265 26.8684 35.9265ZM21.5644 31.1502C20.878 30.9656 20.4715 30.2635 20.654 29.576C20.839 28.8909 21.5425 28.4851 22.2289 28.6674C22.9154 28.8496 23.3243 29.5541 23.1393 30.2392C22.9543 30.9243 22.2508 31.3324 21.5644 31.1478M33.9445 39.748C33.6865 39.8962 33.3579 39.8087 33.207 39.5512C33.0585 39.2937 33.1461 38.9657 33.4042 38.8151C33.6622 38.6669 33.9908 38.7544 34.1417 39.0119C34.2902 39.2694 34.2026 39.5974 33.9445 39.748Z" fill="#00ACB0"/>
<path d="M16.0681 30.1445C15.1821 29.9088 14.6563 29.0002 14.8924 28.1159C15.131 27.234 16.0389 26.7093 16.9274 26.9449C17.811 27.1781 18.3368 28.0892 18.1006 28.9711C17.8645 29.8578 16.9541 30.3826 16.0681 30.1445Z" fill="#26BCEC"/>
<path d="M18.4559 33.6234C17.6478 33.519 17.0806 32.7804 17.1853 31.9738C17.2924 31.1697 18.0324 30.6012 18.8381 30.7081C19.6438 30.8126 20.2134 31.5536 20.1063 32.3577C19.9992 33.1618 19.2616 33.7303 18.4535 33.6234" fill="#233D8D"/>
<path d="M1.00288 40.0906C0.632886 40.2436 0.206907 40.0687 0.0535552 39.6994C-0.0997971 39.3301 0.0754626 38.905 0.445455 38.7519C0.815448 38.5989 1.24143 38.7738 1.39478 39.1431C1.54813 39.5123 1.37287 39.9351 1.00288 40.0906Z" fill="#00ACB0"/>
<path d="M6.48921 35.3604C6.11921 35.5135 5.69324 35.3386 5.53988 34.9693C5.38653 34.6 5.56179 34.1748 5.93178 34.0218C6.30178 33.8687 6.72775 34.0437 6.88111 34.4154C7.03446 34.7846 6.8592 35.2074 6.48921 35.3628M26.868 64.4723C26.498 64.6254 26.0721 64.4505 25.9187 64.0812C25.7653 63.7119 25.9406 63.2868 26.3106 63.1337C26.6806 62.9807 27.1066 63.1556 27.2599 63.5249C27.4133 63.8941 27.238 64.3193 26.868 64.4723Z" fill="#E53750"/>
<path d="M24.3903 38.4045C23.7891 38.4823 23.2365 38.062 23.1562 37.4595C23.0759 36.857 23.5019 36.3079 24.1031 36.2278C24.7043 36.1476 25.2593 36.5703 25.3372 37.1728C25.4176 37.7729 24.994 38.3268 24.3903 38.4045Z" fill="#FECC38"/>
<path d="M27.6423 39.6338C27.1554 39.7626 26.654 39.4759 26.525 38.99C26.3935 38.5041 26.6832 38.0061 27.17 37.8725C27.6569 37.7413 28.1583 38.0304 28.2873 38.5163C28.4188 39.0022 28.1291 39.5026 27.6423 39.6314M21.2794 36.3881C20.5686 36.3881 19.9917 35.8148 19.9917 35.1029C19.9917 34.3935 20.5686 33.8202 21.2769 33.8202C21.9877 33.8202 22.5646 34.396 22.5646 35.1029C22.5646 35.8123 21.9901 36.3881 21.2794 36.3881ZM35.4681 41.4972C35.2563 41.7061 34.9156 41.7061 34.7062 41.4972C34.4944 41.2883 34.4969 40.9457 34.7062 40.7344C34.9156 40.523 35.2588 40.523 35.4681 40.7344C35.6774 40.9457 35.6799 41.2858 35.4681 41.4948" fill="#E53750"/>
<path d="M15.7104 36.84C14.7927 36.84 14.0479 36.099 14.0479 35.1831C14.0479 34.2697 14.7903 33.5287 15.708 33.5262C16.6208 33.5262 17.368 34.2672 17.3656 35.1807C17.3656 36.0966 16.6232 36.84 15.708 36.8376" fill="#FECC38"/>
<path d="M18.9157 39.5828C18.11 39.6897 17.37 39.1237 17.2629 38.3171C17.1558 37.5129 17.7254 36.7744 18.5311 36.6675C19.3368 36.5606 20.0793 37.1267 20.1839 37.9332C20.2886 38.7398 19.7239 39.4784 18.9157 39.5828Z" fill="#26BCEC"/>
<path d="M32.6007 42.6196C32.2843 42.8625 31.8266 42.8042 31.5832 42.486C31.3374 42.1677 31.3982 41.7134 31.7171 41.4704C32.0335 41.2275 32.4912 41.2858 32.7346 41.6041C32.9804 41.9223 32.9196 42.3766 32.6007 42.6196Z" fill="#FECC38"/>
<path d="M12.7623 48.4503C12.4459 48.6932 11.9883 48.6349 11.7448 48.3166C11.499 47.9984 11.5599 47.5441 11.8787 47.3011C12.1952 47.0582 12.6528 47.1165 12.8962 47.4348C13.1421 47.753 13.0812 48.2073 12.7623 48.4503Z" fill="#233D8D"/>
<path d="M25.8898 42.6682C25.3275 42.899 24.6849 42.6342 24.4536 42.073C24.22 41.5142 24.4877 40.8704 25.05 40.6396C25.6099 40.4064 26.2549 40.6712 26.4862 41.2324C26.7198 41.7912 26.4521 42.435 25.8922 42.6658" fill="#00ACB0"/>
<path d="M10.9582 31.7163C10.3959 31.9471 9.75325 31.6823 9.522 31.1211C9.28832 30.5623 9.55608 29.9185 10.1184 29.6877C10.6782 29.4545 11.3233 29.7193 11.5545 30.2805C11.7882 30.8417 11.5204 31.4831 10.9606 31.7163M29.3507 43.0156C28.915 43.2659 28.3551 43.1177 28.1044 42.6828C27.8512 42.2455 28.0022 41.6891 28.4379 41.4389C28.8736 41.1863 29.4335 41.3369 29.6842 41.7717C29.9373 42.2066 29.7864 42.7654 29.3507 43.0156ZM22.3646 41.5264C21.6782 41.711 20.9723 41.3029 20.7873 40.6178C20.6023 39.9327 21.0112 39.2306 21.6977 39.0459C22.3841 38.8613 23.09 39.267 23.2726 39.9545C23.4576 40.6396 23.0511 41.3442 22.3646 41.5264ZM37.3932 42.797C37.2447 43.0545 36.9161 43.1419 36.6556 42.9938C36.3976 42.8456 36.31 42.5152 36.4584 42.2576C36.6069 42.0001 36.938 41.9127 37.196 42.0609C37.454 42.209 37.5417 42.5394 37.3932 42.797Z" fill="#233D8D"/>
<path d="M10.5934 43.3994C9.70735 43.6375 8.79697 43.1127 8.55843 42.2284C8.32231 41.3465 8.84809 40.4379 9.73413 40.1998C10.6153 39.9617 11.5281 40.4865 11.7642 41.3708C12.0028 42.2551 11.477 43.1637 10.5934 43.3994Z" fill="#26BCEC"/>
<path d="M20.909 45.2215C20.1569 45.5324 19.2952 45.1777 18.9836 44.427C18.672 43.6788 19.0299 42.8163 19.782 42.5054C20.5317 42.1944 21.3959 42.5491 21.7074 43.2998C22.019 44.0505 21.6636 44.9105 20.909 45.219" fill="#FECC38"/>
<path d="M34.9133 44.6191C34.6699 44.9373 34.2123 44.9981 33.8958 44.7527C33.5769 44.5097 33.5161 44.0554 33.7619 43.7372C34.0054 43.4189 34.463 43.3582 34.7794 43.6036C35.0983 43.8465 35.1567 44.3008 34.9133 44.6191Z" fill="#00ACB0"/>
<path d="M28.443 46.3998C27.9611 46.7691 27.2722 46.6792 26.8998 46.1982C26.5298 45.7172 26.6223 45.0296 27.1042 44.6604C27.5862 44.2911 28.2775 44.381 28.6451 44.862C29.015 45.343 28.925 46.033 28.443 46.4023" fill="#E53750"/>
<path d="M17.3578 60.2354C16.8758 60.6047 16.187 60.5148 15.8146 60.0337C15.4446 59.5527 15.5346 58.8652 16.019 58.4959C16.501 58.1266 17.1923 58.2165 17.5598 58.6975C17.9298 59.1786 17.8398 59.8685 17.3578 60.2354ZM31.8776 45.8434C31.5198 46.1981 30.9429 46.2005 30.5875 45.8434C30.2297 45.4887 30.2321 44.9129 30.5875 44.5558C30.9429 44.2011 31.5222 44.2011 31.8776 44.5558C32.2354 44.9105 32.2354 45.4887 31.8776 45.8434ZM24.7431 46.2102C24.1272 46.5649 23.341 46.356 22.9856 45.7389C22.6302 45.1267 22.842 44.3396 23.4554 43.9873C24.0688 43.6326 24.8575 43.8415 25.2129 44.4562C25.5682 45.0708 25.3589 45.8555 24.7431 46.2102ZM39.5915 43.5549C39.5136 43.8415 39.219 44.0116 38.9318 43.9363C38.6446 43.861 38.4742 43.5646 38.5496 43.2779C38.6275 42.9912 38.9221 42.8212 39.2117 42.8965C39.499 42.9742 39.6694 43.2682 39.5939 43.5549" fill="#26BCEC"/>
<path d="M20.1429 49.3759C19.3494 49.8351 18.3319 49.563 17.8743 48.771C17.4166 47.979 17.6893 46.9659 18.4852 46.5067C19.2739 46.05 20.2938 46.3221 20.7514 47.1141C21.2115 47.9085 20.9413 48.9192 20.1453 49.3759" fill="#E53750"/>
<path d="M24.2929 50.1508C23.6478 50.6465 22.7229 50.525 22.2263 49.8812C21.7297 49.2374 21.8514 48.3142 22.4989 47.8186C23.144 47.323 24.069 47.4445 24.5655 48.0907C25.0597 48.7345 24.9404 49.6577 24.2929 50.1508Z" fill="#00ACB0"/>
<path d="M37.6664 45.9528C37.513 46.322 37.0895 46.4994 36.7171 46.3439C36.3471 46.1908 36.1694 45.7681 36.3227 45.3989C36.4761 45.0296 36.902 44.8522 37.272 45.0077C37.642 45.1608 37.8173 45.5835 37.6639 45.9552" fill="#E53750"/>
<path d="M31.8779 49.3442C31.5079 49.8253 30.819 49.9152 30.3346 49.5459C29.8527 49.1766 29.7626 48.4891 30.1326 48.0081C30.5026 47.527 31.1915 47.4347 31.6734 47.8064C32.1554 48.1757 32.2479 48.8656 31.8779 49.3442Z" fill="#233D8D"/>
<path d="M35.0497 47.9206C34.7965 48.3554 34.2391 48.5061 33.8034 48.2534C33.3652 48.0007 33.2167 47.4444 33.4699 47.0071C33.7206 46.5722 34.2805 46.4216 34.7162 46.6743C35.1543 46.9245 35.3028 47.4833 35.0497 47.9182M28.2535 50.1168C27.7496 50.6197 26.9366 50.6197 26.4327 50.1168C25.9313 49.6163 25.9313 48.8025 26.4327 48.302C26.9342 47.8015 27.7496 47.7991 28.251 48.302C28.7549 48.8025 28.7549 49.6163 28.251 50.1168M41.9018 43.7152C41.9018 44.0116 41.6608 44.2521 41.3614 44.2521C41.0645 44.2521 40.8235 44.0116 40.8211 43.7128C40.8211 43.414 41.062 43.1735 41.3614 43.1735C41.6584 43.1735 41.9018 43.414 41.8994 43.7128" fill="#FECC38"/>
<path d="M18.5406 54.3635C17.8932 55.0122 16.8392 55.0122 16.1917 54.3635C15.5442 53.7173 15.5442 52.6678 16.1917 52.0191C16.8367 51.3729 17.8907 51.3729 18.5358 52.0191C19.1857 52.6678 19.1857 53.7148 18.5358 54.3611" fill="#E53750"/>
<path d="M24.4827 55.481C23.9886 56.1248 23.0636 56.2487 22.4161 55.7531C21.771 55.2599 21.6493 54.3367 22.1435 53.6905C22.6376 53.0467 23.5626 52.9228 24.2101 53.4184C24.8551 53.914 24.9768 54.8348 24.4803 55.4786M40.6674 46.5285C40.6163 46.9245 40.2512 47.2039 39.852 47.1529C39.4528 47.1019 39.1729 46.7374 39.2264 46.3414C39.2775 45.9454 39.6427 45.6636 40.0419 45.7171C40.4386 45.7681 40.7186 46.1325 40.6674 46.5309" fill="#233D8D"/>
<path d="M35.9572 51.3024C35.7236 51.8612 35.0809 52.1284 34.5211 51.8976C33.9588 51.6668 33.6935 51.023 33.9272 50.4642C34.1584 49.903 34.8035 49.6382 35.3633 49.8714C35.9256 50.1022 36.1934 50.746 35.9597 51.3048" fill="#26BCEC"/>
<path d="M38.6519 49.1061C38.5205 49.592 38.0215 49.8811 37.5347 49.7499C37.0454 49.6212 36.7582 49.1207 36.8896 48.6348C37.0186 48.1489 37.5225 47.8598 38.0069 47.991C38.4937 48.1198 38.7834 48.6202 38.6519 49.1061ZM11.3747 61.4428C11.2433 61.9287 10.7443 62.2178 10.2574 62.0866C9.76816 61.9578 9.48093 61.4574 9.60994 60.9715C9.74138 60.4856 10.2428 60.1965 10.7272 60.3277C11.2141 60.4565 11.5037 60.9569 11.3723 61.4428M32.6542 52.9859C32.2988 53.6006 31.5125 53.8119 30.8967 53.4573C30.2809 53.1026 30.0715 52.3178 30.4269 51.7032C30.7823 51.0886 31.5685 50.8772 32.1844 51.2343C32.8002 51.589 33.012 52.3737 32.6566 52.9859M44.1848 43.2755C44.2627 43.5622 44.0899 43.8561 43.8026 43.9339C43.5154 44.0116 43.2184 43.8391 43.143 43.5524C43.0651 43.2658 43.2379 42.9694 43.5251 42.8941C43.8124 42.8163 44.1093 42.9864 44.1848 43.2755Z" fill="#00ACB0"/>
<path d="M30.2614 58.0223C29.8038 58.8143 28.7863 59.0888 27.9928 58.6296C27.1992 58.1729 26.9291 57.1598 27.3867 56.3654C27.8419 55.5758 28.8593 55.3013 29.6529 55.7605C30.4489 56.2172 30.7215 57.2303 30.2614 58.0223Z" fill="#26BCEC"/>
<path d="M34.2464 56.6205C33.9373 57.3712 33.0756 57.7283 32.3234 57.4173C31.5712 57.1063 31.2159 56.2463 31.5274 55.4956C31.8366 54.7449 32.7007 54.3878 33.4528 54.7012C34.205 55.0122 34.5628 55.8722 34.2488 56.6205" fill="#233D8D"/>
<path d="M43.7225 46.3123C43.776 46.7083 43.4961 47.0727 43.0969 47.1237C42.7001 47.1772 42.335 46.8978 42.2815 46.4994C42.2303 46.1034 42.5078 45.739 42.907 45.6855C43.3038 45.6321 43.6689 45.9114 43.72 46.3099" fill="#26BCEC"/>
<path d="M40.4071 52.1382C40.3268 52.7382 39.7766 53.161 39.173 53.0832C38.5693 53.0055 38.1482 52.4516 38.2261 51.8515C38.304 51.2514 38.8565 50.8263 39.4602 50.9064C40.0639 50.9842 40.4874 51.5357 40.4071 52.1382Z" fill="#FECC38"/>
<path d="M42.442 49.3224C42.442 49.8253 42.033 50.2335 41.5292 50.2335C41.0253 50.2335 40.6164 49.8253 40.6164 49.3224C40.6164 48.8196 41.0253 48.4114 41.5292 48.4114C42.033 48.4114 42.442 48.8196 42.442 49.3224ZM37.6564 54.6162C37.4714 55.3013 36.7679 55.707 36.0791 55.5248C35.3926 55.3426 34.9861 54.6381 35.1711 53.953C35.3537 53.2679 36.0596 52.8597 36.746 53.0443C37.4325 53.229 37.8414 53.9311 37.6564 54.6162ZM46.2733 42.2601C46.4218 42.5176 46.3342 42.8456 46.0762 42.9962C45.8182 43.1444 45.4895 43.0569 45.3386 42.7994C45.1901 42.5419 45.2778 42.2115 45.5358 42.0633C45.7938 41.9151 46.1224 42.0026 46.2733 42.2601Z" fill="#E53750"/>
<path d="M36.649 60.1018C36.4129 60.9861 35.5025 61.5109 34.6165 61.2752C33.7329 61.0371 33.2071 60.131 33.4432 59.2442C33.6769 58.3623 34.5897 57.8376 35.4733 58.0732C36.3593 58.3113 36.8851 59.2175 36.6466 60.1018" fill="#FECC38"/>
<path d="M40.1322 57.7185C40.0275 58.5227 39.2875 59.0912 38.4794 58.9843C37.6737 58.8774 37.1041 58.1388 37.2112 57.3347C37.3159 56.5305 38.0583 55.9621 38.864 56.0689C39.6697 56.1758 40.2393 56.912 40.1322 57.7185Z" fill="#26BCEC"/>
<path d="M46.614 45.3138C46.7674 45.6831 46.5921 46.1083 46.2221 46.2589C45.8521 46.4119 45.4261 46.237 45.2728 45.8678C45.1194 45.4985 45.2947 45.0733 45.6647 44.9203C46.0347 44.7672 46.4607 44.9421 46.614 45.3114" fill="#FECC38"/>
<path d="M44.9222 51.7956C45.0001 52.3957 44.579 52.9472 43.9753 53.0274C43.3717 53.1075 42.8215 52.6824 42.7412 52.0823C42.6609 51.4822 43.0844 50.9283 43.6881 50.8506C44.2893 50.7704 44.8443 51.1931 44.9222 51.7956Z" fill="#00ACB0"/>
<path d="M46.1565 48.5498C46.2855 49.0357 45.9983 49.5361 45.5114 49.6649C45.0246 49.7961 44.5256 49.507 44.3917 49.0211C44.2603 48.5352 44.5499 48.0347 45.0368 47.906C45.5236 47.7748 46.0251 48.0639 46.1541 48.5498M42.9045 54.9003C42.9045 55.6097 42.33 56.1855 41.6168 56.1855C40.906 56.1855 40.3315 55.6122 40.3315 54.9028C40.3315 54.1934 40.9084 53.6176 41.6168 53.62C42.3276 53.62 42.9045 54.1934 42.9045 54.9028M48.0235 40.7416C48.2328 40.9529 48.2328 41.2931 48.0235 41.502C47.8142 41.7109 47.4709 41.7109 47.2592 41.502C47.0474 41.2906 47.0498 40.9505 47.2592 40.7392C47.4709 40.5302 47.8117 40.5278 48.0211 40.7392" fill="#233D8D"/>
<path d="M43.3549 60.4589C43.3549 61.3748 42.6125 62.1182 41.6948 62.1182C40.7795 62.1182 40.0371 61.3772 40.0347 60.4589C40.0322 59.5479 40.7771 58.802 41.6923 58.8044C42.61 58.8044 43.3549 59.543 43.3524 60.4589" fill="#00ACB0"/>
<path d="M46.1029 57.257C46.21 58.0611 45.6429 58.7996 44.8347 58.9065C44.029 59.0134 43.289 58.445 43.1819 57.6408C43.0748 56.8367 43.642 56.0957 44.4501 55.9912C45.2583 55.8868 45.9983 56.4504 46.1029 57.257Z" fill="#FECC38"/>
<path d="M49.1481 43.6011C49.3915 43.917 49.3331 44.3737 49.0142 44.6166C48.6953 44.862 48.2402 44.8013 47.9967 44.483C47.7533 44.1672 47.8117 43.7105 48.1306 43.4675C48.4495 43.2246 48.9047 43.2829 49.1481 43.6011Z" fill="#00ACB0"/>
<path d="M49.1942 50.299C49.4255 50.8602 49.1601 51.5016 48.5978 51.7324C48.038 51.9656 47.3929 51.6984 47.1617 51.1372C46.928 50.5784 47.1958 49.9346 47.7556 49.7038C48.3179 49.473 48.9605 49.7379 49.1942 50.2966" fill="#E53750"/>
<path d="M49.5449 46.8468C49.7956 47.2841 49.6471 47.8405 49.2114 48.0907C48.7732 48.3434 48.2158 48.1928 47.9626 47.7579C47.7095 47.323 47.8604 46.7642 48.2961 46.514C48.7318 46.2614 49.2917 46.412 49.5424 46.8468M48.0503 53.8193C48.2353 54.5044 47.8263 55.209 47.1399 55.3936C46.4535 55.5782 45.75 55.1701 45.565 54.485C45.38 53.7999 45.7889 53.0954 46.4754 52.9132C47.1618 52.7285 47.8677 53.1342 48.0503 53.8193Z" fill="#26BCEC"/>
<path d="M49.9298 59.0717C50.1683 59.956 49.6425 60.8646 48.7565 61.1027C47.8705 61.3383 46.9625 60.816 46.724 59.9293C46.4854 59.0498 47.0112 58.1388 47.8972 57.9031C48.7833 57.665 49.6937 58.1874 49.9298 59.0717Z" fill="#E53750"/>
<path d="M51.7527 55.2697C52.0643 56.0204 51.7089 56.8804 50.9567 57.1914C50.207 57.5024 49.3429 57.1452 49.0313 56.3945C48.7197 55.6463 49.0751 54.7838 49.8297 54.4729C50.5819 54.1619 51.4436 54.5166 51.7527 55.2697Z" fill="#00ACB0"/>
<path d="M51.1515 41.2931C51.4704 41.536 51.5312 41.9903 51.2854 42.3086C51.042 42.6268 50.5868 42.6876 50.2679 42.4422C49.949 42.1993 49.8882 41.7425 50.134 41.4267C50.3774 41.1084 50.8326 41.0501 51.1515 41.2931Z" fill="#E53750"/>
<path d="M52.9331 47.7505C53.3031 48.2316 53.213 48.9191 52.731 49.2908C52.2491 49.6601 51.5578 49.5678 51.1902 49.0867C50.8202 48.6057 50.9103 47.9157 51.3923 47.5489C51.8742 47.1796 52.5655 47.2695 52.9331 47.7505Z" fill="#233D8D"/>
<path d="M52.376 44.3251C52.7314 44.6822 52.7338 45.258 52.376 45.6127C52.0206 45.9698 51.4437 45.9698 51.0859 45.6127C50.728 45.258 50.728 44.6798 51.0859 44.3251C51.4413 43.968 52.0206 43.968 52.376 44.3251ZM52.7435 51.4458C53.0989 52.0604 52.8896 52.8451 52.2713 53.1998C51.6579 53.5545 50.8692 53.3432 50.5138 52.7309C50.1585 52.1187 50.3678 51.3316 50.9836 50.9769C51.5995 50.6222 52.3857 50.8311 52.7411 51.4458" fill="#FECC38"/>
<path d="M55.9177 56.0349C56.3778 56.8269 56.1051 57.8424 55.3116 58.2991C54.518 58.7559 53.503 58.4838 53.0429 57.6918C52.5829 56.9046 52.8555 55.8867 53.6515 55.43C54.4475 54.9708 55.4601 55.2405 55.9177 56.0349Z" fill="#233D8D"/>
<path d="M56.6939 51.8903C57.1905 52.5341 57.0688 53.4573 56.4238 53.9529C55.7787 54.4461 54.8537 54.3271 54.3572 53.6808C53.8606 53.0395 53.9823 52.1138 54.6298 51.6207C55.2748 51.1275 56.1998 51.2465 56.6939 51.8928" fill="#E53750"/>
<path d="M55.8834 44.3227C56.3654 44.6919 56.4555 45.3795 56.0855 45.8629C55.7155 46.3439 55.0266 46.4338 54.5447 46.0646C54.0627 45.6953 53.9702 45.0053 54.3426 44.5267C54.7126 44.0457 55.4039 43.9534 55.8834 44.3227Z" fill="#26BCEC"/>
<path d="M56.6602 47.94C57.164 48.4429 57.164 49.2544 56.6602 49.7573C56.1587 50.2577 55.3433 50.2577 54.8418 49.7573C54.3404 49.2568 54.338 48.4405 54.8418 47.9425C55.3433 47.4396 56.1587 47.4396 56.6602 47.9425" fill="#00ACB0"/>
<path d="M60.9151 51.5551C61.5651 52.2013 61.5651 53.2509 60.9151 53.8995C60.2677 54.5457 59.2161 54.5457 58.5662 53.8995C57.9187 53.2557 57.9187 52.2038 58.5662 51.5575C59.2161 50.9089 60.2652 50.9089 60.9127 51.5575" fill="#26BCEC"/>
<path d="M60.5885 47.3521C61.2336 47.8453 61.3577 48.7685 60.8612 49.4123C60.367 50.0561 59.4421 50.1775 58.7946 49.6843C58.1495 49.1912 58.0254 48.268 58.5219 47.6218C59.0185 46.978 59.9411 46.8565 60.5861 47.3521" fill="#233D8D"/>
<path d="M47.2644 28.2058C47.4737 27.9968 47.8169 27.9968 48.0262 28.2058C48.2356 28.4171 48.2356 28.7573 48.0262 28.9686C47.8145 29.18 47.4737 29.18 47.2619 28.9686C47.0526 28.7573 47.0501 28.4171 47.2619 28.2082" fill="#FECC38"/>
<path d="M50.1317 27.0858C50.4481 26.8429 50.9057 26.9012 51.1491 27.2194C51.395 27.5377 51.3341 27.992 51.0153 28.2349C50.6988 28.4779 50.2412 28.4196 49.9978 28.1013C49.7519 27.7831 49.8128 27.3287 50.1317 27.0858Z" fill="#233D8D"/>
<path d="M45.3388 26.9084C45.4873 26.6509 45.8184 26.5634 46.0764 26.7116C46.3344 26.8598 46.422 27.1902 46.2735 27.4477C46.1251 27.7052 45.794 27.7927 45.536 27.6445C45.278 27.4963 45.1903 27.1659 45.3388 26.9084Z" fill="#00ACB0"/>
<path d="M47.8166 25.0863C48.06 24.768 48.5152 24.7073 48.834 24.9527C49.1529 25.1956 49.2138 25.6499 48.9679 25.9682C48.7245 26.2864 48.2669 26.3472 47.9504 26.1018C47.6316 25.8589 47.5731 25.4046 47.8166 25.0863Z" fill="#26BCEC"/>
<path d="M54.2892 23.308C54.7712 22.9387 55.4601 23.0286 55.8325 23.5121C56.2025 23.9931 56.11 24.6806 55.628 25.0499C55.146 25.4192 54.4547 25.3293 54.0872 24.8483C53.7172 24.3672 53.8073 23.6773 54.2892 23.308Z" fill="#FECC38"/>
<path d="M50.8543 23.8643C51.2121 23.5096 51.789 23.5072 52.1444 23.8643C52.5022 24.219 52.5022 24.7972 52.1444 25.1519C51.789 25.5091 51.2097 25.5091 50.8543 25.1519C50.4965 24.7972 50.4965 24.219 50.8543 23.8643Z" fill="#E53750"/>
<path d="M75.6052 27.1878H70.7807V31.6798H75.8584C76.1383 31.6798 76.2795 31.8013 76.2795 32.0466V33.1642C76.2795 33.4363 76.1383 33.5699 75.8584 33.5699H69.0403C68.775 33.5699 68.6411 33.4363 68.6411 33.1642V19.6662C68.6411 19.4087 68.775 19.28 69.0403 19.28H75.7951C76.075 19.28 76.2138 19.4087 76.2138 19.6662V20.7838C76.2138 21.0559 76.0726 21.1895 75.7951 21.1895H70.7807V25.356H75.6052C75.8559 25.356 75.9825 25.492 75.9825 25.7617V26.7772C75.9825 27.0493 75.8559 27.1829 75.6052 27.1829M83.969 29.7022C83.7962 29.7022 83.6599 29.6196 83.5601 29.4544L80.3007 23.1549V33.1569C80.3007 33.429 80.1742 33.5626 79.9234 33.5626H78.5798C78.3145 33.5626 78.1806 33.4266 78.1806 33.1569V19.6589C78.1806 19.4014 78.3145 19.2727 78.5798 19.2727H79.8796C80.1182 19.2727 80.2788 19.3528 80.3616 19.5132L83.9495 26.4468L87.557 19.5156C87.6397 19.3528 87.7955 19.2727 88.017 19.2727H89.3169C89.5822 19.2727 89.7161 19.4014 89.7161 19.6589V33.1569C89.7161 33.429 89.5822 33.5626 89.3169 33.5626H87.9732C87.7225 33.5626 87.5959 33.429 87.5959 33.1569V23.1816L84.3682 29.469C84.2976 29.6245 84.1613 29.7022 83.9617 29.7022M98.1091 29.7022C97.9362 29.7022 97.7999 29.6196 97.7001 29.4544L94.4408 23.1549V33.1569C94.4408 33.429 94.3142 33.5626 94.0635 33.5626H92.7198C92.4545 33.5626 92.3206 33.4266 92.3206 33.1569V19.6589C92.3206 19.4014 92.4521 19.2727 92.7198 19.2727H94.0221C94.2607 19.2727 94.4213 19.3528 94.5041 19.5132L98.092 26.4468L101.699 19.5156C101.782 19.3528 101.938 19.2727 102.162 19.2727H103.462C103.727 19.2727 103.861 19.4014 103.861 19.6589V33.1569C103.861 33.429 103.727 33.5626 103.462 33.5626H102.118C101.867 33.5626 101.741 33.429 101.741 33.1569V23.1816L98.5131 29.469C98.4425 29.6245 98.3062 29.7022 98.1066 29.7022M109.27 28.2178H112.962L111.137 21.4081H111.095L109.27 28.2178ZM110.129 19.2727H111.955C112.22 19.2727 112.395 19.4087 112.478 19.6784L116.548 33.1375C116.589 33.2589 116.579 33.361 116.516 33.4436C116.453 33.5237 116.358 33.565 116.234 33.565H114.786C114.562 33.565 114.408 33.4436 114.323 33.1982L113.42 30.0666H108.739L107.846 33.1982C107.79 33.4411 107.629 33.5626 107.371 33.5626H105.879C105.577 33.5626 105.463 33.4144 105.533 33.118L109.603 19.6589C109.686 19.399 109.861 19.2702 110.127 19.2702M122.553 33.7667C120.929 33.7667 119.732 33.3658 118.955 32.5665C118.179 31.7673 117.792 30.555 117.792 28.9272V19.6565C117.792 19.399 117.923 19.2702 118.191 19.2702H119.535C119.814 19.2702 119.953 19.399 119.953 19.6565V28.7426C119.953 29.7994 120.155 30.5817 120.562 31.0894C120.968 31.5972 121.633 31.8523 122.555 31.8523C123.478 31.8523 124.142 31.5972 124.549 31.0894C124.955 30.5817 125.157 29.7994 125.157 28.7426V19.6541C125.157 19.3966 125.289 19.2678 125.557 19.2678H126.92C127.185 19.2678 127.319 19.3966 127.319 19.6541V28.9248C127.319 32.1511 125.732 33.7642 122.555 33.7642M137.413 29.9427C137.413 31.2036 136.995 32.1487 136.155 32.7779C135.315 33.4071 134.142 33.7229 132.63 33.7229C131.231 33.7229 130.133 33.5675 129.337 33.2565C129.072 33.135 128.96 32.9723 129.001 32.7682L129.296 31.7308C129.364 31.4466 129.532 31.3591 129.799 31.466C130.554 31.7381 131.435 31.8717 132.443 31.8717C134.303 31.8717 135.232 31.2133 135.232 29.899C135.232 29.3014 135.026 28.8082 134.614 28.4146C134.203 28.0211 133.541 27.5813 132.633 27.093L131.313 26.3277C130.961 26.1212 130.605 25.8467 130.25 25.5017C129.894 25.1568 129.627 24.7559 129.454 24.3016C129.279 23.8473 129.191 23.3347 129.191 22.7662C129.191 20.3003 130.681 19.0662 133.66 19.0662C134.821 19.0662 135.785 19.2095 136.557 19.4937C136.837 19.6031 136.949 19.7658 136.893 19.9821L136.598 20.9976C136.527 21.2551 136.352 21.3377 136.072 21.2405C135.442 21.0364 134.695 20.9368 133.828 20.9368C132.961 20.9368 132.336 21.0826 131.951 21.3766C131.567 21.6681 131.374 22.1418 131.374 22.7953C131.374 23.0942 131.43 23.3711 131.54 23.6214C131.652 23.874 131.844 24.1145 132.124 24.3453C132.402 24.5761 132.647 24.7559 132.864 24.8822C133.078 25.0086 133.402 25.2005 133.833 25.4531C134.31 25.735 134.685 25.956 134.953 26.114C135.22 26.2719 135.539 26.4954 135.904 26.7772C136.269 27.0614 136.542 27.3384 136.725 27.6081C136.907 27.8802 137.068 28.2178 137.209 28.6236C137.35 29.0293 137.421 29.469 137.421 29.9427M73.8307 48.4235C74.4758 48.4235 75.1208 48.2874 75.7659 48.0177C76.002 47.9376 76.1602 48.0323 76.2405 48.302L76.5765 49.2981C76.6276 49.4754 76.5229 49.6309 76.26 49.7645C75.576 50.1435 74.6608 50.333 73.5143 50.333C71.7081 50.333 70.362 49.7499 69.4736 48.5838C68.5851 47.4177 68.1396 45.5543 68.1396 42.9937C68.1396 40.4331 68.5778 38.5867 69.4541 37.4133C70.3304 36.2423 71.657 35.6543 73.4364 35.6543C74.4636 35.6543 75.3594 35.8366 76.1237 36.2034C76.4012 36.3249 76.5059 36.4828 76.4401 36.6723L76.1237 37.6684C76.0458 37.9259 75.8876 38.0133 75.649 37.9332C75.0697 37.6878 74.4368 37.5663 73.7528 37.5663C72.5138 37.5663 71.6181 37.9793 71.0655 38.8053C70.513 39.6313 70.2355 41.0283 70.2355 42.9937C70.2355 44.9591 70.5178 46.356 71.085 47.182C71.6521 48.008 72.5674 48.421 73.8307 48.421M79.9989 47.1796C80.4809 48.0323 81.233 48.4599 82.2602 48.4599C83.2874 48.4599 84.042 48.0323 84.524 47.1796C85.0035 46.3244 85.2445 44.9372 85.2445 43.0131C85.2445 41.089 85.0035 39.6751 84.524 38.815C84.042 37.955 83.2899 37.525 82.2602 37.525C81.2306 37.525 80.4784 37.955 79.9989 38.815C79.5169 39.6751 79.2784 41.0744 79.2784 43.0131C79.2784 44.9518 79.5194 46.3269 79.9989 47.1796ZM78.4775 37.4205C79.3271 36.2423 80.588 35.6519 82.2602 35.6519C83.9325 35.6519 85.1934 36.2423 86.0453 37.4205C86.8973 38.5988 87.3184 40.4622 87.3184 43.0107C87.3184 45.5592 86.8949 47.4153 86.0453 48.5814C85.1958 49.7475 83.9276 50.3306 82.2432 50.3306C80.5587 50.3306 79.3295 49.7451 78.48 48.5717C77.6305 47.4007 77.2069 45.547 77.2069 43.0107C77.2069 40.4743 77.6329 38.5988 78.4824 37.4205M98.2965 36.2204V49.7402C98.2965 50.0123 98.165 50.1459 97.8997 50.1459H96.651C96.4125 50.1459 96.2494 50.0463 96.1569 49.8447L91.1254 39.6775V49.7402C91.1254 50.0123 91.0062 50.1459 90.7701 50.1459H89.5262C89.2755 50.1459 89.1513 50.0123 89.1513 49.7402V36.2423C89.1513 35.9848 89.2755 35.856 89.5238 35.856H90.7603C91.0086 35.856 91.179 35.9532 91.2715 36.1475L96.3054 46.3609V36.2423C96.3054 35.9848 96.4295 35.8536 96.6802 35.8536H97.9046C98.1675 35.8536 98.2989 35.975 98.2989 36.2204M109.705 36.2204V49.7402C109.705 50.0123 109.574 50.1459 109.309 50.1459H108.06C107.821 50.1459 107.658 50.0463 107.566 49.8447L102.532 39.6775V49.7402C102.532 50.0123 102.413 50.1459 102.177 50.1459H100.933C100.682 50.1459 100.558 50.0123 100.558 49.7402V36.2423C100.558 35.9848 100.682 35.856 100.93 35.856H102.167C102.415 35.856 102.585 35.9532 102.678 36.1475L107.712 46.3609V36.2423C107.712 35.9848 107.836 35.8536 108.087 35.8536H109.311C109.574 35.8536 109.705 35.975 109.705 36.2204ZM118.524 43.7614H113.98V48.2534H118.761C119.023 48.2534 119.155 48.3749 119.155 48.6203V49.7378C119.155 50.0099 119.023 50.1435 118.761 50.1435H112.339C112.088 50.1435 111.964 50.0099 111.964 49.7378V36.2398C111.964 35.9823 112.088 35.8536 112.339 35.8536H118.7C118.963 35.8536 119.094 35.9823 119.094 36.2398V37.3574C119.094 37.6295 118.963 37.7631 118.697 37.7631H113.975V41.9296H118.52C118.756 41.9296 118.875 42.0656 118.875 42.3353V43.3508C118.875 43.6229 118.756 43.7565 118.52 43.7565M126.058 48.4113C126.703 48.4113 127.348 48.2753 127.993 48.0056C128.229 47.9254 128.388 48.0202 128.468 48.2898L128.804 49.2859C128.857 49.4633 128.75 49.6187 128.487 49.7524C127.803 50.1314 126.886 50.3209 125.742 50.3209C123.938 50.3209 122.589 49.7378 121.701 48.5717C120.812 47.4055 120.367 45.5422 120.367 42.9815C120.367 40.4209 120.805 38.5745 121.681 37.4011C122.558 36.2301 123.884 35.6422 125.664 35.6422C126.691 35.6422 127.587 35.8244 128.351 36.1913C128.629 36.3127 128.733 36.4706 128.668 36.6601L128.351 37.6562C128.271 37.9137 128.115 38.0012 127.876 37.921C127.297 37.6756 126.664 37.5542 125.98 37.5542C124.741 37.5542 123.845 37.9672 123.293 38.7932C122.74 39.6192 122.463 41.0161 122.463 42.9815C122.463 44.9469 122.745 46.3439 123.312 47.1699C123.88 47.9959 124.795 48.4089 126.058 48.4089M129.841 37.389V36.2301C129.841 35.9726 129.965 35.8438 130.216 35.8438H137.606C137.869 35.8438 138 35.9726 138 36.2301V37.389C138 37.6465 137.869 37.7752 137.606 37.7752H134.938V49.7281C134.938 50.0002 134.806 50.1338 134.544 50.1338H133.278C133.027 50.1338 132.903 49.9977 132.903 49.7281V37.7752H130.216C129.965 37.7752 129.841 37.6465 129.841 37.389Z" fill="#272350"/>
<path d="M119.795 16.3719C119.795 15.8107 120.253 15.354 120.815 15.354C121.377 15.354 121.835 15.8107 121.835 16.3719C121.835 16.9331 121.377 17.3899 120.815 17.3899C120.253 17.3899 119.795 16.9331 119.795 16.3719ZM123.298 16.3719C123.298 15.8107 123.755 15.354 124.318 15.354C124.88 15.354 125.338 15.8107 125.338 16.3719C125.338 16.9331 124.88 17.3899 124.318 17.3899C123.755 17.3899 123.298 16.9331 123.298 16.3719Z" fill="#E53750"/>
</g>
<defs>
<clipPath id="clip0_17_310">
<rect width="138" height="69.6179" fill="white"/>
</clipPath>
</defs>
</svg>
