<svg width="30" height="30" viewBox="0 0 30 30" fill="none" xmlns="http://www.w3.org/2000/svg">
<g clip-path="url(#clip0_129_1498)">
<path d="M18.5625 29.0625C18.5625 28.8139 18.6613 28.5754 18.8371 28.3996C19.0129 28.2238 19.2514 28.125 19.5 28.125L24.1875 28.125C24.6848 28.125 25.1617 27.9275 25.5133 27.5758C25.865 27.2242 26.0625 26.7473 26.0625 26.25L26.0625 3.75C26.0625 3.25272 25.865 2.77581 25.5133 2.42418C25.1617 2.07254 24.6848 1.875 24.1875 1.875L19.5 1.875C19.2514 1.875 19.0129 1.77623 18.8371 1.60041C18.6613 1.4246 18.5625 1.18614 18.5625 0.9375C18.5625 0.68886 18.6613 0.450401 18.8371 0.274586C19.0129 0.0987721 19.2514 8.21457e-09 19.5 1.11796e-08L24.1875 6.70775e-08C25.1821 7.89375e-08 26.1359 0.395088 26.8392 1.09835C27.5424 1.80161 27.9375 2.75544 27.9375 3.75L27.9375 26.25C27.9375 27.2446 27.5424 28.1984 26.8392 28.9017C26.1359 29.6049 25.1821 30 24.1875 30L19.5 30C19.2514 30 19.0129 29.9012 18.8371 29.7254C18.6613 29.5496 18.5625 29.3111 18.5625 29.0625Z" fill="#002743"/>
<path d="M22.2262 15.6638C22.3136 15.5767 22.3828 15.4732 22.4301 15.3593C22.4773 15.2454 22.5017 15.1233 22.5017 15C22.5017 14.8767 22.4773 14.7546 22.4301 14.6407C22.3828 14.5268 22.3136 14.4233 22.2262 14.3363L16.6012 8.71125C16.4252 8.53522 16.1865 8.43632 15.9375 8.43632C15.6885 8.43632 15.4498 8.53522 15.2737 8.71125C15.0977 8.88729 14.9988 9.12605 14.9988 9.375C14.9988 9.62396 15.0977 9.86272 15.2737 10.0388L19.2994 14.0625L2.8125 14.0625C2.56386 14.0625 2.3254 14.1613 2.14959 14.3371C1.97377 14.5129 1.875 14.7514 1.875 15C1.875 15.2486 1.97377 15.4871 2.14959 15.6629C2.3254 15.8387 2.56386 15.9375 2.8125 15.9375L19.2994 15.9375L15.2737 19.9613C15.0977 20.1373 14.9988 20.3761 14.9988 20.625C14.9988 20.874 15.0977 21.1127 15.2737 21.2888C15.4498 21.4648 15.6885 21.5637 15.9375 21.5637C16.1865 21.5637 16.4252 21.4648 16.6012 21.2888L22.2262 15.6638Z" fill="#002743"/>
</g>
<defs>
<clipPath id="clip0_129_1498">
<rect width="30" height="30" fill="white" transform="translate(0 30) rotate(-90)"/>
</clipPath>
</defs>
</svg>
