<svg width="19" height="19" viewBox="0 0 19 19" fill="none" xmlns="http://www.w3.org/2000/svg">
<path d="M9.5 0.75C9.79008 0.75 10.0683 0.865234 10.2734 1.07035C10.4785 1.27547 10.5938 1.55367 10.5938 1.84375V8.40625H17.1562C17.4463 8.40625 17.7245 8.52148 17.9296 8.7266C18.1348 8.93172 18.25 9.20992 18.25 9.5C18.25 9.79008 18.1348 10.0683 17.9296 10.2734C17.7245 10.4785 17.4463 10.5938 17.1562 10.5938H10.5938V17.1562C10.5938 17.4463 10.4785 17.7245 10.2734 17.9296C10.0683 18.1348 9.79008 18.25 9.5 18.25C9.20992 18.25 8.93172 18.1348 8.7266 17.9296C8.52148 17.7245 8.40625 17.4463 8.40625 17.1562V10.5938H1.84375C1.55367 10.5938 1.27547 10.4785 1.07035 10.2734C0.865234 10.0683 0.75 9.79008 0.75 9.5C0.75 9.20992 0.865234 8.93172 1.07035 8.7266C1.27547 8.52148 1.55367 8.40625 1.84375 8.40625H8.40625V1.84375C8.40625 1.55367 8.52148 1.27547 8.7266 1.07035C8.93172 0.865234 9.20992 0.75 9.5 0.75Z" fill="#002743"/>
</svg>
